<?xml version="1.0" encoding="UTF-8" standalone="no"?>
<!DOCTYPE svg PUBLIC "-//W3C//DTD SVG 1.1//EN"
 "http://www.w3.org/Graphics/SVG/1.1/DTD/svg11.dtd">
<!-- Generated by graphviz version 2.47.0 (20210316.0004)
 -->
<!-- Title: dependencies Pages: 1 -->
<svg width="982pt" height="358pt"
 viewBox="0.00 0.00 982.00 358.00" xmlns="http://www.w3.org/2000/svg" xmlns:xlink="http://www.w3.org/1999/xlink">
<g id="graph0" class="graph" transform="scale(1 1) rotate(0) translate(4 354)">
<title>dependencies</title>
<polygon fill="white" stroke="transparent" points="-4,4 -4,-354 978,-354 978,4 -4,4"/>
<text text-anchor="start" x="466.01" y="-42.4" font-family="Times-12" font-weight="bold" font-size="14.00">Legend</text>
<polygon fill="#ffffb3" stroke="transparent" points="253,-10 253,-30 273,-30 273,-10 253,-10"/>
<text text-anchor="start" x="276.63" y="-15.4" font-family="Times-12" font-size="14.00"> &#160;Declarations</text>
<polygon fill="#8dd3c7" stroke="transparent" points="366,-10 366,-30 386,-30 386,-10 366,-10"/>
<text text-anchor="start" x="389.73" y="-15.4" font-family="Times-12" font-size="14.00"> &#160;Module</text>
<polygon fill="#80b1d3" stroke="transparent" points="452,-10 452,-30 472,-30 472,-10 452,-10"/>
<text text-anchor="start" x="475.78" y="-15.4" font-family="Times-12" font-size="14.00"> &#160;Bootstrap</text>
<polygon fill="#fdb462" stroke="transparent" points="549,-10 549,-30 569,-30 569,-10 549,-10"/>
<text text-anchor="start" x="572.67" y="-15.4" font-family="Times-12" font-size="14.00"> &#160;Providers</text>
<polygon fill="#fb8072" stroke="transparent" points="645,-10 645,-30 665,-30 665,-10 645,-10"/>
<text text-anchor="start" x="668.73" y="-15.4" font-family="Times-12" font-size="14.00"> &#160;Exports</text>
<g id="clust31" class="cluster">
<title>cluster_UsersModule</title>
<polygon fill="none" stroke="black" stroke-dasharray="1,5" points="652,-70 652,-274 808,-274 808,-70 652,-70"/>
</g>
<g id="clust34" class="cluster">
<title>cluster_UsersModule_exports</title>
<polygon fill="none" stroke="black" points="660,-214 660,-266 770,-266 770,-214 660,-214"/>
</g>
<g id="clust36" class="cluster">
<title>cluster_UsersModule_providers</title>
<polygon fill="none" stroke="black" points="660,-78 660,-130 800,-130 800,-78 660,-78"/>
</g>
<g id="clust19" class="cluster">
<title>cluster_PostsModule</title>
<polygon fill="none" stroke="black" stroke-dasharray="1,5" points="492,-138 492,-266 644,-266 644,-138 492,-138"/>
</g>
<g id="clust24" class="cluster">
<title>cluster_PostsModule_providers</title>
<polygon fill="none" stroke="black" points="500,-146 500,-198 636,-198 636,-146 500,-146"/>
</g>
<g id="clust13" class="cluster">
<title>cluster_MetaOptionsModule</title>
<polygon fill="none" stroke="black" stroke-dasharray="1,5" points="8,-138 8,-342 220,-342 220,-138 8,-138"/>
</g>
<g id="clust18" class="cluster">
<title>cluster_MetaOptionsModule_providers</title>
<polygon fill="none" stroke="black" points="16,-146 16,-198 212,-198 212,-146 16,-146"/>
</g>
<g id="clust16" class="cluster">
<title>cluster_MetaOptionsModule_exports</title>
<polygon fill="none" stroke="black" points="50,-282 50,-334 200,-334 200,-282 50,-282"/>
</g>
<g id="clust7" class="cluster">
<title>cluster_AuthModule</title>
<polygon fill="none" stroke="black" stroke-dasharray="1,5" points="816,-138 816,-342 966,-342 966,-138 816,-138"/>
</g>
<g id="clust10" class="cluster">
<title>cluster_AuthModule_exports</title>
<polygon fill="none" stroke="black" points="831,-282 831,-334 937,-334 937,-282 831,-282"/>
</g>
<g id="clust12" class="cluster">
<title>cluster_AuthModule_providers</title>
<polygon fill="none" stroke="black" points="824,-146 824,-198 958,-198 958,-146 824,-146"/>
</g>
<g id="clust1" class="cluster">
<title>cluster_AppModule</title>
<polygon fill="none" stroke="black" stroke-dasharray="1,5" points="228,-206 228,-334 484,-334 484,-206 228,-206"/>
</g>
<g id="clust3" class="cluster">
<title>cluster_AppModule_imports</title>
<polygon fill="none" stroke="black" points="374,-214 374,-266 476,-266 476,-214 374,-214"/>
</g>
<g id="clust6" class="cluster">
<title>cluster_AppModule_providers</title>
<polygon fill="none" stroke="black" points="236,-214 236,-266 366,-266 366,-214 236,-214"/>
</g>
<!-- AuthModule -->
<g id="node1" class="node">
<title>AuthModule</title>
<polygon fill="#8dd3c7" stroke="black" points="927.55,-258 924.55,-262 903.55,-262 900.55,-258 840.45,-258 840.45,-222 927.55,-222 927.55,-258"/>
<text text-anchor="middle" x="884" y="-235.8" font-family="Times,serif" font-size="14.00">AuthModule</text>
</g>
<!-- AppModule -->
<g id="node6" class="node">
<title>AppModule</title>
<polygon fill="#8dd3c7" stroke="black" points="470.66,-326 467.66,-330 446.66,-330 443.66,-326 387.34,-326 387.34,-290 470.66,-290 470.66,-326"/>
<text text-anchor="middle" x="429" y="-303.8" font-family="Times,serif" font-size="14.00">AppModule</text>
</g>
<!-- AuthModule&#45;&gt;AppModule -->
<g id="edge1" class="edge">
<title>AuthModule&#45;&gt;AppModule</title>
<path fill="none" stroke="black" d="M840.31,-240C837.33,-240 835.48,-240 835.48,-240 835.48,-240 835.48,-317 835.48,-317 835.48,-317 480.97,-317 480.97,-317"/>
<polygon fill="black" stroke="black" points="480.97,-313.5 470.97,-317 480.97,-320.5 480.97,-313.5"/>
</g>
<!-- AuthService  -->
<g id="node8" class="node">
<title>AuthService </title>
<polygon fill="#fb8072" stroke="black" points="928.98,-326 839.02,-326 839.02,-290 928.98,-290 928.98,-326"/>
<text text-anchor="middle" x="884" y="-303.8" font-family="Times,serif" font-size="14.00">AuthService </text>
</g>
<!-- AuthModule&#45;&gt;AuthService  -->
<g id="edge7" class="edge">
<title>AuthModule&#45;&gt;AuthService </title>
<path fill="none" stroke="black" stroke-dasharray="5,2" d="M884,-258.22C884,-258.22 884,-279.73 884,-279.73"/>
<polygon fill="black" stroke="black" points="880.5,-279.73 884,-289.73 887.5,-279.73 880.5,-279.73"/>
</g>
<!-- MetaOptionsModule -->
<g id="node2" class="node">
<title>MetaOptionsModule</title>
<polygon fill="#8dd3c7" stroke="black" points="191.15,-258 188.15,-262 167.15,-262 164.15,-258 58.85,-258 58.85,-222 191.15,-222 191.15,-258"/>
<text text-anchor="middle" x="125" y="-235.8" font-family="Times,serif" font-size="14.00">MetaOptionsModule</text>
</g>
<!-- MetaOptionsModule&#45;&gt;AppModule -->
<g id="edge2" class="edge">
<title>MetaOptionsModule&#45;&gt;AppModule</title>
<path fill="none" stroke="black" d="M191.3,-240C209.53,-240 224.4,-240 224.4,-240 224.4,-240 224.4,-314 224.4,-314 224.4,-314 377.1,-314 377.1,-314"/>
<polygon fill="black" stroke="black" points="377.1,-317.5 387.1,-314 377.1,-310.5 377.1,-317.5"/>
</g>
<!-- MetaOptionsService  -->
<g id="node10" class="node">
<title>MetaOptionsService </title>
<polygon fill="#fb8072" stroke="black" points="192.08,-326 57.92,-326 57.92,-290 192.08,-290 192.08,-326"/>
<text text-anchor="middle" x="125" y="-303.8" font-family="Times,serif" font-size="14.00">MetaOptionsService </text>
</g>
<!-- MetaOptionsModule&#45;&gt;MetaOptionsService  -->
<g id="edge9" class="edge">
<title>MetaOptionsModule&#45;&gt;MetaOptionsService </title>
<path fill="none" stroke="black" stroke-dasharray="5,2" d="M125,-258.22C125,-258.22 125,-279.73 125,-279.73"/>
<polygon fill="black" stroke="black" points="121.5,-279.73 125,-289.73 128.5,-279.73 121.5,-279.73"/>
</g>
<!-- PostsModule -->
<g id="node3" class="node">
<title>PostsModule</title>
<polygon fill="#8dd3c7" stroke="black" points="612.61,-258 609.61,-262 588.61,-262 585.61,-258 523.39,-258 523.39,-222 612.61,-222 612.61,-258"/>
<text text-anchor="middle" x="568" y="-235.8" font-family="Times,serif" font-size="14.00">PostsModule</text>
</g>
<!-- PostsModule&#45;&gt;AppModule -->
<g id="edge3" class="edge">
<title>PostsModule&#45;&gt;AppModule</title>
<path fill="none" stroke="black" d="M568,-258.02C568,-275.37 568,-299 568,-299 568,-299 480.7,-299 480.7,-299"/>
<polygon fill="black" stroke="black" points="480.7,-295.5 470.7,-299 480.7,-302.5 480.7,-295.5"/>
</g>
<!-- TagsModule -->
<g id="node4" class="node">
<title>TagsModule</title>
<polygon fill="#8dd3c7" stroke="black" points="468.26,-258 465.26,-262 444.26,-262 441.26,-258 381.74,-258 381.74,-222 468.26,-222 468.26,-258"/>
<text text-anchor="middle" x="425" y="-235.8" font-family="Times,serif" font-size="14.00">TagsModule</text>
</g>
<!-- TagsModule&#45;&gt;AppModule -->
<g id="edge4" class="edge">
<title>TagsModule&#45;&gt;AppModule</title>
<path fill="none" stroke="black" d="M427.78,-258.22C427.78,-258.22 427.78,-279.73 427.78,-279.73"/>
<polygon fill="black" stroke="black" points="424.28,-279.73 427.78,-289.73 431.28,-279.73 424.28,-279.73"/>
</g>
<!-- UsersModule -->
<g id="node5" class="node">
<title>UsersModule</title>
<polygon fill="#8dd3c7" stroke="black" points="767.92,-190 764.92,-194 743.92,-194 740.92,-190 676.08,-190 676.08,-154 767.92,-154 767.92,-190"/>
<text text-anchor="middle" x="722" y="-167.8" font-family="Times,serif" font-size="14.00">UsersModule</text>
</g>
<!-- UsersModule&#45;&gt;PostsModule -->
<g id="edge11" class="edge">
<title>UsersModule&#45;&gt;PostsModule</title>
<path fill="none" stroke="black" d="M676.16,-166C658.11,-166 641.6,-166 641.6,-166 641.6,-166 641.6,-240 641.6,-240 641.6,-240 622.93,-240 622.93,-240"/>
<polygon fill="black" stroke="black" points="622.93,-236.5 612.93,-240 622.93,-243.5 622.93,-236.5"/>
</g>
<!-- UsersModule&#45;&gt;AppModule -->
<g id="edge5" class="edge">
<title>UsersModule&#45;&gt;AppModule</title>
<path fill="none" stroke="black" d="M676.07,-178C664.26,-178 654.81,-178 654.81,-178 654.81,-178 654.81,-308 654.81,-308 654.81,-308 480.68,-308 480.68,-308"/>
<polygon fill="black" stroke="black" points="480.68,-304.5 470.68,-308 480.68,-311.5 480.68,-304.5"/>
</g>
<!-- UsersService  -->
<g id="node13" class="node">
<title>UsersService </title>
<polygon fill="#fb8072" stroke="black" points="761.85,-258 668.15,-258 668.15,-222 761.85,-222 761.85,-258"/>
<text text-anchor="middle" x="715" y="-235.8" font-family="Times,serif" font-size="14.00">UsersService </text>
</g>
<!-- UsersModule&#45;&gt;UsersService  -->
<g id="edge13" class="edge">
<title>UsersModule&#45;&gt;UsersService </title>
<path fill="none" stroke="black" stroke-dasharray="5,2" d="M718.98,-190.22C718.98,-190.22 718.98,-211.73 718.98,-211.73"/>
<polygon fill="black" stroke="black" points="715.48,-211.73 718.98,-221.73 722.48,-211.73 715.48,-211.73"/>
</g>
<!-- AppService -->
<g id="node7" class="node">
<title>AppService</title>
<ellipse fill="#fdb462" stroke="black" cx="301" cy="-240" rx="56.74" ry="18"/>
<text text-anchor="middle" x="301" y="-235.8" font-family="Times,serif" font-size="14.00">AppService</text>
</g>
<!-- AppService&#45;&gt;AppModule -->
<g id="edge6" class="edge">
<title>AppService&#45;&gt;AppModule</title>
<path fill="none" stroke="black" d="M301,-258.27C301,-276.56 301,-302 301,-302 301,-302 377.09,-302 377.09,-302"/>
<polygon fill="black" stroke="black" points="377.09,-305.5 387.09,-302 377.09,-298.5 377.09,-305.5"/>
</g>
<!-- AuthService -->
<g id="node9" class="node">
<title>AuthService</title>
<ellipse fill="#fdb462" stroke="black" cx="891" cy="-172" rx="59.11" ry="18"/>
<text text-anchor="middle" x="891" y="-167.8" font-family="Times,serif" font-size="14.00">AuthService</text>
</g>
<!-- AuthService&#45;&gt;AuthModule -->
<g id="edge8" class="edge">
<title>AuthService&#45;&gt;AuthModule</title>
<path fill="none" stroke="black" d="M884,-190.22C884,-190.22 884,-211.73 884,-211.73"/>
<polygon fill="black" stroke="black" points="880.5,-211.73 884,-221.73 887.5,-211.73 880.5,-211.73"/>
</g>
<!-- MetaOptionsService -->
<g id="node11" class="node">
<title>MetaOptionsService</title>
<ellipse fill="#fdb462" stroke="black" cx="114" cy="-172" rx="90.33" ry="18"/>
<text text-anchor="middle" x="114" y="-167.8" font-family="Times,serif" font-size="14.00">MetaOptionsService</text>
</g>
<!-- MetaOptionsService&#45;&gt;MetaOptionsModule -->
<g id="edge10" class="edge">
<title>MetaOptionsService&#45;&gt;MetaOptionsModule</title>
<path fill="none" stroke="black" d="M125,-190.22C125,-190.22 125,-211.73 125,-211.73"/>
<polygon fill="black" stroke="black" points="121.5,-211.73 125,-221.73 128.5,-211.73 121.5,-211.73"/>
</g>
<!-- PostsService -->
<g id="node12" class="node">
<title>PostsService</title>
<ellipse fill="#fdb462" stroke="black" cx="568" cy="-172" rx="60.27" ry="18"/>
<text text-anchor="middle" x="568" y="-167.8" font-family="Times,serif" font-size="14.00">PostsService</text>
</g>
<!-- PostsService&#45;&gt;PostsModule -->
<g id="edge12" class="edge">
<title>PostsService&#45;&gt;PostsModule</title>
<path fill="none" stroke="black" d="M568,-190.22C568,-190.22 568,-211.73 568,-211.73"/>
<polygon fill="black" stroke="black" points="564.5,-211.73 568,-221.73 571.5,-211.73 564.5,-211.73"/>
</g>
<!-- UsersService -->
<g id="node14" class="node">
<title>UsersService</title>
<ellipse fill="#fdb462" stroke="black" cx="730" cy="-104" rx="61.95" ry="18"/>
<text text-anchor="middle" x="730" y="-99.8" font-family="Times,serif" font-size="14.00">UsersService</text>
</g>
<!-- UsersService&#45;&gt;UsersModule -->
<g id="edge14" class="edge">
<title>UsersService&#45;&gt;UsersModule</title>
<path fill="none" stroke="black" d="M722,-121.87C722,-121.87 722,-143.54 722,-143.54"/>
<polygon fill="black" stroke="black" points="718.5,-143.54 722,-153.54 725.5,-143.54 718.5,-143.54"/>
</g>
</g>
</svg>
