<?xml version="1.0" encoding="UTF-8" standalone="no"?>
<!DOCTYPE svg PUBLIC "-//W3C//DTD SVG 1.1//EN"
 "http://www.w3.org/Graphics/SVG/1.1/DTD/svg11.dtd">
<!-- Generated by graphviz version 2.47.0 (20210316.0004)
 -->
<!-- Title: dependencies Pages: 1 -->
<svg width="1738pt" height="287pt"
 viewBox="0.00 0.00 1738.00 287.00" xmlns="http://www.w3.org/2000/svg" xmlns:xlink="http://www.w3.org/1999/xlink">
<g id="graph0" class="graph" transform="scale(1 1) rotate(0) translate(4 283)">
<title>dependencies</title>
<polygon fill="white" stroke="transparent" points="-4,4 -4,-283 1734,-283 1734,4 -4,4"/>
<text text-anchor="start" x="844.01" y="-42.4" font-family="Times-12" font-weight="bold" font-size="14.00">Legend</text>
<polygon fill="#ffffb3" stroke="transparent" points="631,-10 631,-30 651,-30 651,-10 631,-10"/>
<text text-anchor="start" x="654.63" y="-15.4" font-family="Times-12" font-size="14.00"> &#160;Declarations</text>
<polygon fill="#8dd3c7" stroke="transparent" points="744,-10 744,-30 764,-30 764,-10 744,-10"/>
<text text-anchor="start" x="767.73" y="-15.4" font-family="Times-12" font-size="14.00"> &#160;Module</text>
<polygon fill="#80b1d3" stroke="transparent" points="830,-10 830,-30 850,-30 850,-10 830,-10"/>
<text text-anchor="start" x="853.78" y="-15.4" font-family="Times-12" font-size="14.00"> &#160;Bootstrap</text>
<polygon fill="#fdb462" stroke="transparent" points="927,-10 927,-30 947,-30 947,-10 927,-10"/>
<text text-anchor="start" x="950.67" y="-15.4" font-family="Times-12" font-size="14.00"> &#160;Providers</text>
<polygon fill="#fb8072" stroke="transparent" points="1023,-10 1023,-30 1043,-30 1043,-10 1023,-10"/>
<text text-anchor="start" x="1046.73" y="-15.4" font-family="Times-12" font-size="14.00"> &#160;Exports</text>
<g id="clust1" class="cluster">
<title>cluster_AppModule</title>
<polygon fill="none" stroke="black" stroke-dasharray="1,5" points="168,-70 168,-271 790,-271 790,-70 168,-70"/>
</g>
<g id="clust6" class="cluster">
<title>cluster_AppModule_providers</title>
<polygon fill="none" stroke="black" points="652,-154 652,-206 782,-206 782,-154 652,-154"/>
</g>
<g id="clust3" class="cluster">
<title>cluster_AppModule_imports</title>
<polygon fill="none" stroke="black" points="176,-78 176,-206 644,-206 644,-78 176,-78"/>
</g>
<g id="clust7" class="cluster">
<title>cluster_AuthModule</title>
<polygon fill="none" stroke="black" stroke-dasharray="1,5" points="798,-146 798,-214 1062,-214 1062,-146 798,-146"/>
</g>
<g id="clust12" class="cluster">
<title>cluster_AuthModule_providers</title>
<polygon fill="none" stroke="black" points="920,-154 920,-206 1054,-206 1054,-154 920,-154"/>
</g>
<g id="clust10" class="cluster">
<title>cluster_AuthModule_exports</title>
<polygon fill="none" stroke="black" points="806,-154 806,-206 912,-206 912,-154 806,-154"/>
</g>
<g id="clust13" class="cluster">
<title>cluster_MetaOptionsModule</title>
<polygon fill="none" stroke="black" stroke-dasharray="1,5" points="1070,-146 1070,-214 1440,-214 1440,-146 1070,-146"/>
</g>
<g id="clust16" class="cluster">
<title>cluster_MetaOptionsModule_exports</title>
<polygon fill="none" stroke="black" points="1282,-154 1282,-206 1432,-206 1432,-154 1282,-154"/>
</g>
<g id="clust18" class="cluster">
<title>cluster_MetaOptionsModule_providers</title>
<polygon fill="none" stroke="black" points="1078,-154 1078,-206 1274,-206 1274,-154 1078,-154"/>
</g>
<g id="clust31" class="cluster">
<title>cluster_UsersModule</title>
<polygon fill="none" stroke="black" stroke-dasharray="1,5" points="1448,-146 1448,-214 1722,-214 1722,-146 1448,-146"/>
</g>
<g id="clust34" class="cluster">
<title>cluster_UsersModule_exports</title>
<polygon fill="none" stroke="black" points="1604,-154 1604,-206 1714,-206 1714,-154 1604,-154"/>
</g>
<g id="clust36" class="cluster">
<title>cluster_UsersModule_providers</title>
<polygon fill="none" stroke="black" points="1456,-154 1456,-206 1596,-206 1596,-154 1456,-154"/>
</g>
<g id="clust19" class="cluster">
<title>cluster_PostsModule</title>
<polygon fill="none" stroke="black" stroke-dasharray="1,5" points="8,-70 8,-138 160,-138 160,-70 8,-70"/>
</g>
<g id="clust24" class="cluster">
<title>cluster_PostsModule_providers</title>
<polygon fill="none" stroke="black" points="16,-78 16,-130 152,-130 152,-78 16,-78"/>
</g>
<!-- AuthModule -->
<g id="node1" class="node">
<title>AuthModule</title>
<polygon fill="#8dd3c7" stroke="black" points="375.55,-122 372.55,-126 351.55,-126 348.55,-122 288.45,-122 288.45,-86 375.55,-86 375.55,-122"/>
<text text-anchor="middle" x="332" y="-99.8" font-family="Times,serif" font-size="14.00">AuthModule</text>
</g>
<!-- AppModule -->
<g id="node6" class="node">
<title>AppModule</title>
<polygon fill="#8dd3c7" stroke="black" points="491.66,-263 488.66,-267 467.66,-267 464.66,-263 408.34,-263 408.34,-227 491.66,-227 491.66,-263"/>
<text text-anchor="middle" x="450" y="-240.8" font-family="Times,serif" font-size="14.00">AppModule</text>
</g>
<!-- AuthModule&#45;&gt;AppModule -->
<g id="edge1" class="edge">
<title>AuthModule&#45;&gt;AppModule</title>
<path fill="none" stroke="black" d="M299.84,-122.21C299.84,-159.06 299.84,-239 299.84,-239 299.84,-239 398.17,-239 398.17,-239"/>
<polygon fill="black" stroke="black" points="398.17,-242.5 408.17,-239 398.17,-235.5 398.17,-242.5"/>
</g>
<!-- AuthService  -->
<g id="node8" class="node">
<title>AuthService </title>
<polygon fill="#fb8072" stroke="black" points="903.98,-198 814.02,-198 814.02,-162 903.98,-162 903.98,-198"/>
<text text-anchor="middle" x="859" y="-175.8" font-family="Times,serif" font-size="14.00">AuthService </text>
</g>
<!-- AuthModule&#45;&gt;AuthService  -->
<g id="edge7" class="edge">
<title>AuthModule&#45;&gt;AuthService </title>
<path fill="none" stroke="black" stroke-dasharray="5,2" d="M354.33,-122.05C354.33,-136.37 354.33,-154 354.33,-154 354.33,-154 859,-154 859,-154 859,-154 859,-154.79 859,-154.79"/>
<polygon fill="black" stroke="black" points="855.5,-151.94 859,-161.94 862.5,-151.94 855.5,-151.94"/>
</g>
<!-- MetaOptionsModule -->
<g id="node2" class="node">
<title>MetaOptionsModule</title>
<polygon fill="#8dd3c7" stroke="black" points="526.15,-122 523.15,-126 502.15,-126 499.15,-122 393.85,-122 393.85,-86 526.15,-86 526.15,-122"/>
<text text-anchor="middle" x="460" y="-99.8" font-family="Times,serif" font-size="14.00">MetaOptionsModule</text>
</g>
<!-- MetaOptionsModule&#45;&gt;AppModule -->
<g id="edge2" class="edge">
<title>MetaOptionsModule&#45;&gt;AppModule</title>
<path fill="none" stroke="black" d="M450,-122.14C450,-122.14 450,-216.93 450,-216.93"/>
<polygon fill="black" stroke="black" points="446.5,-216.92 450,-226.93 453.5,-216.93 446.5,-216.92"/>
</g>
<!-- MetaOptionsService  -->
<g id="node10" class="node">
<title>MetaOptionsService </title>
<polygon fill="#fb8072" stroke="black" points="1424.08,-198 1289.92,-198 1289.92,-162 1424.08,-162 1424.08,-198"/>
<text text-anchor="middle" x="1357" y="-175.8" font-family="Times,serif" font-size="14.00">MetaOptionsService </text>
</g>
<!-- MetaOptionsModule&#45;&gt;MetaOptionsService  -->
<g id="edge9" class="edge">
<title>MetaOptionsModule&#45;&gt;MetaOptionsService </title>
<path fill="none" stroke="black" stroke-dasharray="5,2" d="M503.33,-122.06C503.33,-126.49 503.33,-130 503.33,-130 503.33,-130 1357,-130 1357,-130 1357,-130 1357,-151.95 1357,-151.95"/>
<polygon fill="black" stroke="black" points="1353.5,-151.95 1357,-161.95 1360.5,-151.95 1353.5,-151.95"/>
</g>
<!-- PostsModule -->
<g id="node3" class="node">
<title>PostsModule</title>
<polygon fill="#8dd3c7" stroke="black" points="400.61,-198 397.61,-202 376.61,-202 373.61,-198 311.39,-198 311.39,-162 400.61,-162 400.61,-198"/>
<text text-anchor="middle" x="356" y="-175.8" font-family="Times,serif" font-size="14.00">PostsModule</text>
</g>
<!-- PostsModule&#45;&gt;AppModule -->
<g id="edge3" class="edge">
<title>PostsModule&#45;&gt;AppModule</title>
<path fill="none" stroke="black" d="M400.62,-189C415.84,-189 429.09,-189 429.09,-189 429.09,-189 429.09,-216.97 429.09,-216.97"/>
<polygon fill="black" stroke="black" points="425.59,-216.97 429.09,-226.97 432.59,-216.97 425.59,-216.97"/>
</g>
<!-- TagsModule -->
<g id="node4" class="node">
<title>TagsModule</title>
<polygon fill="#8dd3c7" stroke="black" points="270.26,-122 267.26,-126 246.26,-126 243.26,-122 183.74,-122 183.74,-86 270.26,-86 270.26,-122"/>
<text text-anchor="middle" x="227" y="-99.8" font-family="Times,serif" font-size="14.00">TagsModule</text>
</g>
<!-- TagsModule&#45;&gt;AppModule -->
<g id="edge4" class="edge">
<title>TagsModule&#45;&gt;AppModule</title>
<path fill="none" stroke="black" d="M227,-122.03C227,-161.28 227,-251 227,-251 227,-251 398.32,-251 398.32,-251"/>
<polygon fill="black" stroke="black" points="398.32,-254.5 408.32,-251 398.32,-247.5 398.32,-254.5"/>
</g>
<!-- UsersModule -->
<g id="node5" class="node">
<title>UsersModule</title>
<polygon fill="#8dd3c7" stroke="black" points="635.92,-122 632.92,-126 611.92,-126 608.92,-122 544.08,-122 544.08,-86 635.92,-86 635.92,-122"/>
<text text-anchor="middle" x="590" y="-99.8" font-family="Times,serif" font-size="14.00">UsersModule</text>
</g>
<!-- UsersModule&#45;&gt;PostsModule -->
<g id="edge11" class="edge">
<title>UsersModule&#45;&gt;PostsModule</title>
<path fill="none" stroke="black" d="M574.76,-122.31C574.76,-142.15 574.76,-171 574.76,-171 574.76,-171 410.8,-171 410.8,-171"/>
<polygon fill="black" stroke="black" points="410.8,-167.5 400.8,-171 410.8,-174.5 410.8,-167.5"/>
</g>
<!-- UsersModule&#45;&gt;AppModule -->
<g id="edge5" class="edge">
<title>UsersModule&#45;&gt;AppModule</title>
<path fill="none" stroke="black" d="M605.24,-122.14C605.24,-160.23 605.24,-245 605.24,-245 605.24,-245 502.01,-245 502.01,-245"/>
<polygon fill="black" stroke="black" points="502.01,-241.5 492.01,-245 502.01,-248.5 502.01,-241.5"/>
</g>
<!-- UsersService  -->
<g id="node13" class="node">
<title>UsersService </title>
<polygon fill="#fb8072" stroke="black" points="1705.85,-198 1612.15,-198 1612.15,-162 1705.85,-162 1705.85,-198"/>
<text text-anchor="middle" x="1659" y="-175.8" font-family="Times,serif" font-size="14.00">UsersService </text>
</g>
<!-- UsersModule&#45;&gt;UsersService  -->
<g id="edge13" class="edge">
<title>UsersModule&#45;&gt;UsersService </title>
<path fill="none" stroke="black" stroke-dasharray="5,2" d="M635.93,-98C840.55,-98 1659,-98 1659,-98 1659,-98 1659,-151.8 1659,-151.8"/>
<polygon fill="black" stroke="black" points="1655.5,-151.8 1659,-161.8 1662.5,-151.8 1655.5,-151.8"/>
</g>
<!-- AppService -->
<g id="node7" class="node">
<title>AppService</title>
<ellipse fill="#fdb462" stroke="black" cx="717" cy="-180" rx="56.74" ry="18"/>
<text text-anchor="middle" x="717" y="-175.8" font-family="Times,serif" font-size="14.00">AppService</text>
</g>
<!-- AppService&#45;&gt;AppModule -->
<g id="edge6" class="edge">
<title>AppService&#45;&gt;AppModule</title>
<path fill="none" stroke="black" d="M660.23,-180C587.56,-180 470.91,-180 470.91,-180 470.91,-180 470.91,-216.89 470.91,-216.89"/>
<polygon fill="black" stroke="black" points="467.41,-216.89 470.91,-226.89 474.41,-216.89 467.41,-216.89"/>
</g>
<!-- AuthService -->
<g id="node9" class="node">
<title>AuthService</title>
<ellipse fill="#fdb462" stroke="black" cx="987" cy="-180" rx="59.11" ry="18"/>
<text text-anchor="middle" x="987" y="-175.8" font-family="Times,serif" font-size="14.00">AuthService</text>
</g>
<!-- AuthService&#45;&gt;AuthModule -->
<g id="edge8" class="edge">
<title>AuthService&#45;&gt;AuthModule</title>
<path fill="none" stroke="black" d="M987,-161.81C987,-153.72 987,-146 987,-146 987,-146 332.89,-146 332.89,-146 332.89,-146 332.89,-132.06 332.89,-132.06"/>
<polygon fill="black" stroke="black" points="336.39,-132.06 332.89,-122.06 329.39,-132.06 336.39,-132.06"/>
</g>
<!-- MetaOptionsService -->
<g id="node11" class="node">
<title>MetaOptionsService</title>
<ellipse fill="#fdb462" stroke="black" cx="1176" cy="-180" rx="90.33" ry="18"/>
<text text-anchor="middle" x="1176" y="-175.8" font-family="Times,serif" font-size="14.00">MetaOptionsService</text>
</g>
<!-- MetaOptionsService&#45;&gt;MetaOptionsModule -->
<g id="edge10" class="edge">
<title>MetaOptionsService&#45;&gt;MetaOptionsModule</title>
<path fill="none" stroke="black" d="M1176,-161.94C1176,-150.56 1176,-138 1176,-138 1176,-138 514.82,-138 514.82,-138 514.82,-138 514.82,-132.19 514.82,-132.19"/>
<polygon fill="black" stroke="black" points="518.33,-132.19 514.82,-122.19 511.33,-132.19 518.33,-132.19"/>
</g>
<!-- PostsService -->
<g id="node12" class="node">
<title>PostsService</title>
<ellipse fill="#fdb462" stroke="black" cx="84" cy="-104" rx="60.27" ry="18"/>
<text text-anchor="middle" x="84" y="-99.8" font-family="Times,serif" font-size="14.00">PostsService</text>
</g>
<!-- PostsService&#45;&gt;PostsModule -->
<g id="edge12" class="edge">
<title>PostsService&#45;&gt;PostsModule</title>
<path fill="none" stroke="black" d="M84,-122.01C84,-144.49 84,-180 84,-180 84,-180 301.39,-180 301.39,-180"/>
<polygon fill="black" stroke="black" points="301.39,-183.5 311.39,-180 301.39,-176.5 301.39,-183.5"/>
</g>
<!-- UsersService -->
<g id="node14" class="node">
<title>UsersService</title>
<ellipse fill="#fdb462" stroke="black" cx="1526" cy="-180" rx="61.95" ry="18"/>
<text text-anchor="middle" x="1526" y="-175.8" font-family="Times,serif" font-size="14.00">UsersService</text>
</g>
<!-- UsersService&#45;&gt;UsersModule -->
<g id="edge14" class="edge">
<title>UsersService&#45;&gt;UsersModule</title>
<path fill="none" stroke="black" d="M1526,-161.97C1526,-141.23 1526,-110 1526,-110 1526,-110 645.78,-110 645.78,-110"/>
<polygon fill="black" stroke="black" points="645.78,-106.5 635.78,-110 645.78,-113.5 645.78,-106.5"/>
</g>
</g>
</svg>
