<?xml version="1.0" encoding="UTF-8" standalone="no"?>
<!DOCTYPE svg PUBLIC "-//W3C//DTD SVG 1.1//EN"
 "http://www.w3.org/Graphics/SVG/1.1/DTD/svg11.dtd">
<!-- Generated by graphviz version 2.47.0 (20210316.0004)
 -->
<!-- Title: dependencies Pages: 1 -->
<svg width="930pt" height="366pt"
 viewBox="0.00 0.00 930.00 366.00" xmlns="http://www.w3.org/2000/svg" xmlns:xlink="http://www.w3.org/1999/xlink">
<g id="graph0" class="graph" transform="scale(1 1) rotate(0) translate(4 362)">
<title>dependencies</title>
<polygon fill="white" stroke="transparent" points="-4,4 -4,-362 926,-362 926,4 -4,4"/>
<text text-anchor="start" x="440.01" y="-42.4" font-family="Times-12" font-weight="bold" font-size="14.00">Legend</text>
<polygon fill="#ffffb3" stroke="transparent" points="227,-10 227,-30 247,-30 247,-10 227,-10"/>
<text text-anchor="start" x="250.63" y="-15.4" font-family="Times-12" font-size="14.00"> &#160;Declarations</text>
<polygon fill="#8dd3c7" stroke="transparent" points="340,-10 340,-30 360,-30 360,-10 340,-10"/>
<text text-anchor="start" x="363.73" y="-15.4" font-family="Times-12" font-size="14.00"> &#160;Module</text>
<polygon fill="#80b1d3" stroke="transparent" points="426,-10 426,-30 446,-30 446,-10 426,-10"/>
<text text-anchor="start" x="449.78" y="-15.4" font-family="Times-12" font-size="14.00"> &#160;Bootstrap</text>
<polygon fill="#fdb462" stroke="transparent" points="523,-10 523,-30 543,-30 543,-10 523,-10"/>
<text text-anchor="start" x="546.67" y="-15.4" font-family="Times-12" font-size="14.00"> &#160;Providers</text>
<polygon fill="#fb8072" stroke="transparent" points="619,-10 619,-30 639,-30 639,-10 619,-10"/>
<text text-anchor="start" x="642.73" y="-15.4" font-family="Times-12" font-size="14.00"> &#160;Exports</text>
<g id="clust7" class="cluster">
<title>cluster_AuthModule</title>
<polygon fill="none" stroke="black" stroke-dasharray="1,5" points="8,-138 8,-350 158,-350 158,-138 8,-138"/>
</g>
<g id="clust10" class="cluster">
<title>cluster_AuthModule_exports</title>
<polygon fill="none" stroke="black" points="37,-290 37,-342 143,-342 143,-290 37,-290"/>
</g>
<g id="clust12" class="cluster">
<title>cluster_AuthModule_providers</title>
<polygon fill="none" stroke="black" points="16,-146 16,-198 150,-198 150,-146 16,-146"/>
</g>
<g id="clust13" class="cluster">
<title>cluster_MetaOptionsModule</title>
<polygon fill="none" stroke="black" stroke-dasharray="1,5" points="702,-138 702,-350 914,-350 914,-138 702,-138"/>
</g>
<g id="clust16" class="cluster">
<title>cluster_MetaOptionsModule_exports</title>
<polygon fill="none" stroke="black" points="721,-290 721,-342 871,-342 871,-290 721,-290"/>
</g>
<g id="clust18" class="cluster">
<title>cluster_MetaOptionsModule_providers</title>
<polygon fill="none" stroke="black" points="710,-146 710,-198 906,-198 906,-146 710,-146"/>
</g>
<g id="clust31" class="cluster">
<title>cluster_UsersModule</title>
<polygon fill="none" stroke="black" stroke-dasharray="1,5" points="538,-70 538,-282 694,-282 694,-70 538,-70"/>
</g>
<g id="clust34" class="cluster">
<title>cluster_UsersModule_exports</title>
<polygon fill="none" stroke="black" points="546,-222 546,-274 656,-274 656,-222 546,-222"/>
</g>
<g id="clust36" class="cluster">
<title>cluster_UsersModule_providers</title>
<polygon fill="none" stroke="black" points="546,-78 546,-130 686,-130 686,-78 546,-78"/>
</g>
<g id="clust1" class="cluster">
<title>cluster_AppModule</title>
<polygon fill="none" stroke="black" stroke-dasharray="1,5" points="166,-214 166,-342 530,-342 530,-214 166,-214"/>
</g>
<g id="clust6" class="cluster">
<title>cluster_AppModule_providers</title>
<polygon fill="none" stroke="black" points="392,-222 392,-274 522,-274 522,-222 392,-222"/>
</g>
<g id="clust3" class="cluster">
<title>cluster_AppModule_imports</title>
<polygon fill="none" stroke="black" points="174,-222 174,-274 384,-274 384,-222 174,-222"/>
</g>
<g id="clust19" class="cluster">
<title>cluster_PostsModule</title>
<polygon fill="none" stroke="black" stroke-dasharray="1,5" points="255,-138 255,-206 407,-206 407,-138 255,-138"/>
</g>
<g id="clust24" class="cluster">
<title>cluster_PostsModule_providers</title>
<polygon fill="none" stroke="black" points="263,-146 263,-198 399,-198 399,-146 263,-146"/>
</g>
<!-- AuthModule -->
<g id="node1" class="node">
<title>AuthModule</title>
<polygon fill="#8dd3c7" stroke="black" points="133.55,-266 130.55,-270 109.55,-270 106.55,-266 46.45,-266 46.45,-230 133.55,-230 133.55,-266"/>
<text text-anchor="middle" x="90" y="-243.8" font-family="Times,serif" font-size="14.00">AuthModule</text>
</g>
<!-- AppModule -->
<g id="node6" class="node">
<title>AppModule</title>
<polygon fill="#8dd3c7" stroke="black" points="435.66,-334 432.66,-338 411.66,-338 408.66,-334 352.34,-334 352.34,-298 435.66,-298 435.66,-334"/>
<text text-anchor="middle" x="394" y="-311.8" font-family="Times,serif" font-size="14.00">AppModule</text>
</g>
<!-- AuthModule&#45;&gt;AppModule -->
<g id="edge1" class="edge">
<title>AuthModule&#45;&gt;AppModule</title>
<path fill="none" stroke="black" d="M133.69,-248C136.67,-248 138.52,-248 138.52,-248 138.52,-248 138.52,-322 138.52,-322 138.52,-322 342.1,-322 342.1,-322"/>
<polygon fill="black" stroke="black" points="342.1,-325.5 352.1,-322 342.1,-318.5 342.1,-325.5"/>
</g>
<!-- AuthService  -->
<g id="node8" class="node">
<title>AuthService </title>
<polygon fill="#fb8072" stroke="black" points="134.98,-334 45.02,-334 45.02,-298 134.98,-298 134.98,-334"/>
<text text-anchor="middle" x="90" y="-311.8" font-family="Times,serif" font-size="14.00">AuthService </text>
</g>
<!-- AuthModule&#45;&gt;AuthService  -->
<g id="edge7" class="edge">
<title>AuthModule&#45;&gt;AuthService </title>
<path fill="none" stroke="black" stroke-dasharray="5,2" d="M90,-266.22C90,-266.22 90,-287.73 90,-287.73"/>
<polygon fill="black" stroke="black" points="86.5,-287.73 90,-297.73 93.5,-287.73 86.5,-287.73"/>
</g>
<!-- MetaOptionsModule -->
<g id="node2" class="node">
<title>MetaOptionsModule</title>
<polygon fill="#8dd3c7" stroke="black" points="862.15,-266 859.15,-270 838.15,-270 835.15,-266 729.85,-266 729.85,-230 862.15,-230 862.15,-266"/>
<text text-anchor="middle" x="796" y="-243.8" font-family="Times,serif" font-size="14.00">MetaOptionsModule</text>
</g>
<!-- MetaOptionsModule&#45;&gt;AppModule -->
<g id="edge2" class="edge">
<title>MetaOptionsModule&#45;&gt;AppModule</title>
<path fill="none" stroke="black" d="M729.36,-248C725.5,-248 723.15,-248 723.15,-248 723.15,-248 723.15,-316 723.15,-316 723.15,-316 445.69,-316 445.69,-316"/>
<polygon fill="black" stroke="black" points="445.69,-312.5 435.69,-316 445.69,-319.5 445.69,-312.5"/>
</g>
<!-- MetaOptionsService  -->
<g id="node10" class="node">
<title>MetaOptionsService </title>
<polygon fill="#fb8072" stroke="black" points="863.08,-334 728.92,-334 728.92,-298 863.08,-298 863.08,-334"/>
<text text-anchor="middle" x="796" y="-311.8" font-family="Times,serif" font-size="14.00">MetaOptionsService </text>
</g>
<!-- MetaOptionsModule&#45;&gt;MetaOptionsService  -->
<g id="edge9" class="edge">
<title>MetaOptionsModule&#45;&gt;MetaOptionsService </title>
<path fill="none" stroke="black" stroke-dasharray="5,2" d="M796,-266.22C796,-266.22 796,-287.73 796,-287.73"/>
<polygon fill="black" stroke="black" points="792.5,-287.73 796,-297.73 799.5,-287.73 792.5,-287.73"/>
</g>
<!-- PostsModule -->
<g id="node3" class="node">
<title>PostsModule</title>
<polygon fill="#8dd3c7" stroke="black" points="375.61,-266 372.61,-270 351.61,-270 348.61,-266 286.39,-266 286.39,-230 375.61,-230 375.61,-266"/>
<text text-anchor="middle" x="331" y="-243.8" font-family="Times,serif" font-size="14.00">PostsModule</text>
</g>
<!-- PostsModule&#45;&gt;AppModule -->
<g id="edge3" class="edge">
<title>PostsModule&#45;&gt;AppModule</title>
<path fill="none" stroke="black" d="M363.86,-266.22C363.86,-266.22 363.86,-287.73 363.86,-287.73"/>
<polygon fill="black" stroke="black" points="360.36,-287.73 363.86,-297.73 367.36,-287.73 360.36,-287.73"/>
</g>
<!-- TagsModule -->
<g id="node4" class="node">
<title>TagsModule</title>
<polygon fill="#8dd3c7" stroke="black" points="268.26,-266 265.26,-270 244.26,-270 241.26,-266 181.74,-266 181.74,-230 268.26,-230 268.26,-266"/>
<text text-anchor="middle" x="225" y="-243.8" font-family="Times,serif" font-size="14.00">TagsModule</text>
</g>
<!-- TagsModule&#45;&gt;AppModule -->
<g id="edge4" class="edge">
<title>TagsModule&#45;&gt;AppModule</title>
<path fill="none" stroke="black" d="M225,-266.27C225,-284.56 225,-310 225,-310 225,-310 342.22,-310 342.22,-310"/>
<polygon fill="black" stroke="black" points="342.22,-313.5 352.22,-310 342.22,-306.5 342.22,-313.5"/>
</g>
<!-- UsersModule -->
<g id="node5" class="node">
<title>UsersModule</title>
<polygon fill="#8dd3c7" stroke="black" points="653.92,-190 650.92,-194 629.92,-194 626.92,-190 562.08,-190 562.08,-154 653.92,-154 653.92,-190"/>
<text text-anchor="middle" x="608" y="-167.8" font-family="Times,serif" font-size="14.00">UsersModule</text>
</g>
<!-- UsersModule&#45;&gt;PostsModule -->
<g id="edge11" class="edge">
<title>UsersModule&#45;&gt;PostsModule</title>
<path fill="none" stroke="black" d="M562.17,-166C499.41,-166 394.38,-166 394.38,-166 394.38,-166 394.38,-248 394.38,-248 394.38,-248 385.71,-248 385.71,-248"/>
<polygon fill="black" stroke="black" points="385.71,-244.5 375.71,-248 385.71,-251.5 385.71,-244.5"/>
</g>
<!-- UsersModule&#45;&gt;AppModule -->
<g id="edge5" class="edge">
<title>UsersModule&#45;&gt;AppModule</title>
<path fill="none" stroke="black" d="M562.04,-178C500.07,-178 397.38,-178 397.38,-178 397.38,-178 397.38,-287.96 397.38,-287.96"/>
<polygon fill="black" stroke="black" points="393.88,-287.96 397.38,-297.96 400.88,-287.96 393.88,-287.96"/>
</g>
<!-- UsersService  -->
<g id="node13" class="node">
<title>UsersService </title>
<polygon fill="#fb8072" stroke="black" points="647.85,-266 554.15,-266 554.15,-230 647.85,-230 647.85,-266"/>
<text text-anchor="middle" x="601" y="-243.8" font-family="Times,serif" font-size="14.00">UsersService </text>
</g>
<!-- UsersModule&#45;&gt;UsersService  -->
<g id="edge13" class="edge">
<title>UsersModule&#45;&gt;UsersService </title>
<path fill="none" stroke="black" stroke-dasharray="5,2" d="M604.98,-190.01C604.98,-190.01 604.98,-219.85 604.98,-219.85"/>
<polygon fill="black" stroke="black" points="601.48,-219.85 604.98,-229.85 608.48,-219.85 601.48,-219.85"/>
</g>
<!-- AppService -->
<g id="node7" class="node">
<title>AppService</title>
<ellipse fill="#fdb462" stroke="black" cx="457" cy="-248" rx="56.74" ry="18"/>
<text text-anchor="middle" x="457" y="-243.8" font-family="Times,serif" font-size="14.00">AppService</text>
</g>
<!-- AppService&#45;&gt;AppModule -->
<g id="edge6" class="edge">
<title>AppService&#45;&gt;AppModule</title>
<path fill="none" stroke="black" d="M418.1,-261.11C418.1,-261.11 418.1,-287.79 418.1,-287.79"/>
<polygon fill="black" stroke="black" points="414.6,-287.79 418.1,-297.79 421.6,-287.79 414.6,-287.79"/>
</g>
<!-- AuthService -->
<g id="node9" class="node">
<title>AuthService</title>
<ellipse fill="#fdb462" stroke="black" cx="83" cy="-172" rx="59.11" ry="18"/>
<text text-anchor="middle" x="83" y="-167.8" font-family="Times,serif" font-size="14.00">AuthService</text>
</g>
<!-- AuthService&#45;&gt;AuthModule -->
<g id="edge8" class="edge">
<title>AuthService&#45;&gt;AuthModule</title>
<path fill="none" stroke="black" d="M90,-190.01C90,-190.01 90,-219.85 90,-219.85"/>
<polygon fill="black" stroke="black" points="86.5,-219.85 90,-229.85 93.5,-219.85 86.5,-219.85"/>
</g>
<!-- MetaOptionsService -->
<g id="node11" class="node">
<title>MetaOptionsService</title>
<ellipse fill="#fdb462" stroke="black" cx="808" cy="-172" rx="90.33" ry="18"/>
<text text-anchor="middle" x="808" y="-167.8" font-family="Times,serif" font-size="14.00">MetaOptionsService</text>
</g>
<!-- MetaOptionsService&#45;&gt;MetaOptionsModule -->
<g id="edge10" class="edge">
<title>MetaOptionsService&#45;&gt;MetaOptionsModule</title>
<path fill="none" stroke="black" d="M796,-190.01C796,-190.01 796,-219.85 796,-219.85"/>
<polygon fill="black" stroke="black" points="792.5,-219.85 796,-229.85 799.5,-219.85 792.5,-219.85"/>
</g>
<!-- PostsService -->
<g id="node12" class="node">
<title>PostsService</title>
<ellipse fill="#fdb462" stroke="black" cx="331" cy="-172" rx="60.27" ry="18"/>
<text text-anchor="middle" x="331" y="-167.8" font-family="Times,serif" font-size="14.00">PostsService</text>
</g>
<!-- PostsService&#45;&gt;PostsModule -->
<g id="edge12" class="edge">
<title>PostsService&#45;&gt;PostsModule</title>
<path fill="none" stroke="black" d="M331,-190.01C331,-190.01 331,-219.85 331,-219.85"/>
<polygon fill="black" stroke="black" points="327.5,-219.85 331,-229.85 334.5,-219.85 327.5,-219.85"/>
</g>
<!-- UsersService -->
<g id="node14" class="node">
<title>UsersService</title>
<ellipse fill="#fdb462" stroke="black" cx="616" cy="-104" rx="61.95" ry="18"/>
<text text-anchor="middle" x="616" y="-99.8" font-family="Times,serif" font-size="14.00">UsersService</text>
</g>
<!-- UsersService&#45;&gt;UsersModule -->
<g id="edge14" class="edge">
<title>UsersService&#45;&gt;UsersModule</title>
<path fill="none" stroke="black" d="M608,-121.87C608,-121.87 608,-143.54 608,-143.54"/>
<polygon fill="black" stroke="black" points="604.5,-143.54 608,-153.54 611.5,-143.54 604.5,-143.54"/>
</g>
</g>
</svg>
