<?xml version="1.0" encoding="UTF-8" standalone="no"?>
<!DOCTYPE svg PUBLIC "-//W3C//DTD SVG 1.1//EN"
 "http://www.w3.org/Graphics/SVG/1.1/DTD/svg11.dtd">
<!-- Generated by graphviz version 2.47.0 (20210316.0004)
 -->
<!-- Title: dependencies Pages: 1 -->
<svg width="1462pt" height="298pt"
 viewBox="0.00 0.00 1462.00 298.00" xmlns="http://www.w3.org/2000/svg" xmlns:xlink="http://www.w3.org/1999/xlink">
<g id="graph0" class="graph" transform="scale(1 1) rotate(0) translate(4 294)">
<title>dependencies</title>
<polygon fill="white" stroke="transparent" points="-4,4 -4,-294 1458,-294 1458,4 -4,4"/>
<text text-anchor="start" x="706.01" y="-42.4" font-family="Times-12" font-weight="bold" font-size="14.00">Legend</text>
<polygon fill="#ffffb3" stroke="transparent" points="493,-10 493,-30 513,-30 513,-10 493,-10"/>
<text text-anchor="start" x="516.63" y="-15.4" font-family="Times-12" font-size="14.00"> &#160;Declarations</text>
<polygon fill="#8dd3c7" stroke="transparent" points="606,-10 606,-30 626,-30 626,-10 606,-10"/>
<text text-anchor="start" x="629.73" y="-15.4" font-family="Times-12" font-size="14.00"> &#160;Module</text>
<polygon fill="#80b1d3" stroke="transparent" points="692,-10 692,-30 712,-30 712,-10 692,-10"/>
<text text-anchor="start" x="715.78" y="-15.4" font-family="Times-12" font-size="14.00"> &#160;Bootstrap</text>
<polygon fill="#fdb462" stroke="transparent" points="789,-10 789,-30 809,-30 809,-10 789,-10"/>
<text text-anchor="start" x="812.67" y="-15.4" font-family="Times-12" font-size="14.00"> &#160;Providers</text>
<polygon fill="#fb8072" stroke="transparent" points="885,-10 885,-30 905,-30 905,-10 885,-10"/>
<text text-anchor="start" x="908.73" y="-15.4" font-family="Times-12" font-size="14.00"> &#160;Exports</text>
<g id="clust19" class="cluster">
<title>cluster_PostsModule</title>
<polygon fill="none" stroke="black" stroke-dasharray="1,5" points="8,-70 8,-198 276,-198 276,-70 8,-70"/>
</g>
<g id="clust21" class="cluster">
<title>cluster_PostsModule_imports</title>
<polygon fill="none" stroke="black" points="160,-78 160,-130 268,-130 268,-78 160,-78"/>
</g>
<g id="clust24" class="cluster">
<title>cluster_PostsModule_providers</title>
<polygon fill="none" stroke="black" points="16,-78 16,-130 152,-130 152,-78 16,-78"/>
</g>
<g id="clust1" class="cluster">
<title>cluster_AppModule</title>
<polygon fill="none" stroke="black" stroke-dasharray="1,5" points="284,-138 284,-274 796,-274 796,-138 284,-138"/>
</g>
<g id="clust3" class="cluster">
<title>cluster_AppModule_imports</title>
<polygon fill="none" stroke="black" points="430,-146 430,-198 788,-198 788,-146 430,-146"/>
</g>
<g id="clust6" class="cluster">
<title>cluster_AppModule_providers</title>
<polygon fill="none" stroke="black" points="292,-146 292,-198 422,-198 422,-146 292,-146"/>
</g>
<g id="clust31" class="cluster">
<title>cluster_UsersModule</title>
<polygon fill="none" stroke="black" stroke-dasharray="1,5" points="804,-138 804,-206 1078,-206 1078,-138 804,-138"/>
</g>
<g id="clust34" class="cluster">
<title>cluster_UsersModule_exports</title>
<polygon fill="none" stroke="black" points="960,-146 960,-198 1070,-198 1070,-146 960,-146"/>
</g>
<g id="clust36" class="cluster">
<title>cluster_UsersModule_providers</title>
<polygon fill="none" stroke="black" points="812,-146 812,-198 952,-198 952,-146 812,-146"/>
</g>
<g id="clust7" class="cluster">
<title>cluster_AuthModule</title>
<polygon fill="none" stroke="black" stroke-dasharray="1,5" points="804,-214 804,-282 1068,-282 1068,-214 804,-214"/>
</g>
<g id="clust12" class="cluster">
<title>cluster_AuthModule_providers</title>
<polygon fill="none" stroke="black" points="926,-222 926,-274 1060,-274 1060,-222 926,-222"/>
</g>
<g id="clust10" class="cluster">
<title>cluster_AuthModule_exports</title>
<polygon fill="none" stroke="black" points="812,-222 812,-274 918,-274 918,-222 812,-222"/>
</g>
<g id="clust13" class="cluster">
<title>cluster_MetaOptionsModule</title>
<polygon fill="none" stroke="black" stroke-dasharray="1,5" points="1076,-214 1076,-282 1446,-282 1446,-214 1076,-214"/>
</g>
<g id="clust16" class="cluster">
<title>cluster_MetaOptionsModule_exports</title>
<polygon fill="none" stroke="black" points="1288,-222 1288,-274 1438,-274 1438,-222 1288,-222"/>
</g>
<g id="clust18" class="cluster">
<title>cluster_MetaOptionsModule_providers</title>
<polygon fill="none" stroke="black" points="1084,-222 1084,-274 1280,-274 1280,-222 1084,-222"/>
</g>
<!-- AuthModule -->
<g id="node1" class="node">
<title>AuthModule</title>
<polygon fill="#8dd3c7" stroke="black" points="629.55,-190 626.55,-194 605.55,-194 602.55,-190 542.45,-190 542.45,-154 629.55,-154 629.55,-190"/>
<text text-anchor="middle" x="586" y="-167.8" font-family="Times,serif" font-size="14.00">AuthModule</text>
</g>
<!-- AppModule -->
<g id="node6" class="node">
<title>AppModule</title>
<polygon fill="#8dd3c7" stroke="black" points="460.66,-266 457.66,-270 436.66,-270 433.66,-266 377.34,-266 377.34,-230 460.66,-230 460.66,-266"/>
<text text-anchor="middle" x="419" y="-243.8" font-family="Times,serif" font-size="14.00">AppModule</text>
</g>
<!-- AuthModule&#45;&gt;AppModule -->
<g id="edge1" class="edge">
<title>AuthModule&#45;&gt;AppModule</title>
<path fill="none" stroke="black" d="M586,-190.01C586,-212.49 586,-248 586,-248 586,-248 470.71,-248 470.71,-248"/>
<polygon fill="black" stroke="black" points="470.71,-244.5 460.71,-248 470.71,-251.5 470.71,-244.5"/>
</g>
<!-- AuthService  -->
<g id="node8" class="node">
<title>AuthService </title>
<polygon fill="#fb8072" stroke="black" points="909.98,-266 820.02,-266 820.02,-230 909.98,-230 909.98,-266"/>
<text text-anchor="middle" x="865" y="-243.8" font-family="Times,serif" font-size="14.00">AuthService </text>
</g>
<!-- AuthModule&#45;&gt;AuthService  -->
<g id="edge7" class="edge">
<title>AuthModule&#45;&gt;AuthService </title>
<path fill="none" stroke="black" stroke-dasharray="5,2" d="M607.89,-190.31C607.89,-210.15 607.89,-239 607.89,-239 607.89,-239 810.21,-239 810.21,-239"/>
<polygon fill="black" stroke="black" points="810.21,-242.5 820.21,-239 810.21,-235.5 810.21,-242.5"/>
</g>
<!-- MetaOptionsModule -->
<g id="node2" class="node">
<title>MetaOptionsModule</title>
<polygon fill="#8dd3c7" stroke="black" points="780.15,-190 777.15,-194 756.15,-194 753.15,-190 647.85,-190 647.85,-154 780.15,-154 780.15,-190"/>
<text text-anchor="middle" x="714" y="-167.8" font-family="Times,serif" font-size="14.00">MetaOptionsModule</text>
</g>
<!-- MetaOptionsModule&#45;&gt;AppModule -->
<g id="edge2" class="edge">
<title>MetaOptionsModule&#45;&gt;AppModule</title>
<path fill="none" stroke="black" d="M747.16,-190.03C747.16,-214.98 747.16,-257 747.16,-257 747.16,-257 470.9,-257 470.9,-257"/>
<polygon fill="black" stroke="black" points="470.9,-253.5 460.9,-257 470.9,-260.5 470.9,-253.5"/>
</g>
<!-- MetaOptionsService  -->
<g id="node10" class="node">
<title>MetaOptionsService </title>
<polygon fill="#fb8072" stroke="black" points="1430.08,-266 1295.92,-266 1295.92,-230 1430.08,-230 1430.08,-266"/>
<text text-anchor="middle" x="1363" y="-243.8" font-family="Times,serif" font-size="14.00">MetaOptionsService </text>
</g>
<!-- MetaOptionsModule&#45;&gt;MetaOptionsService  -->
<g id="edge9" class="edge">
<title>MetaOptionsModule&#45;&gt;MetaOptionsService </title>
<path fill="none" stroke="black" stroke-dasharray="5,2" d="M680.84,-190.21C680.84,-195.55 680.84,-200 680.84,-200 680.84,-200 1363,-200 1363,-200 1363,-200 1363,-219.85 1363,-219.85"/>
<polygon fill="black" stroke="black" points="1359.5,-219.85 1363,-229.85 1366.5,-219.85 1359.5,-219.85"/>
</g>
<!-- PostsModule -->
<g id="node3" class="node">
<title>PostsModule</title>
<polygon fill="#8dd3c7" stroke="black" points="243.61,-190 240.61,-194 219.61,-194 216.61,-190 154.39,-190 154.39,-154 243.61,-154 243.61,-190"/>
<text text-anchor="middle" x="199" y="-167.8" font-family="Times,serif" font-size="14.00">PostsModule</text>
</g>
<!-- PostsModule&#45;&gt;AppModule -->
<g id="edge3" class="edge">
<title>PostsModule&#45;&gt;AppModule</title>
<path fill="none" stroke="black" d="M199,-190.2C199,-214.36 199,-254 199,-254 199,-254 367.1,-254 367.1,-254"/>
<polygon fill="black" stroke="black" points="367.1,-257.5 377.1,-254 367.1,-250.5 367.1,-257.5"/>
</g>
<!-- TagsModule -->
<g id="node4" class="node">
<title>TagsModule</title>
<polygon fill="#8dd3c7" stroke="black" points="524.26,-190 521.26,-194 500.26,-194 497.26,-190 437.74,-190 437.74,-154 524.26,-154 524.26,-190"/>
<text text-anchor="middle" x="481" y="-167.8" font-family="Times,serif" font-size="14.00">TagsModule</text>
</g>
<!-- TagsModule&#45;&gt;AppModule -->
<g id="edge4" class="edge">
<title>TagsModule&#45;&gt;AppModule</title>
<path fill="none" stroke="black" d="M449.22,-190.01C449.22,-190.01 449.22,-219.85 449.22,-219.85"/>
<polygon fill="black" stroke="black" points="445.72,-219.85 449.22,-229.85 452.72,-219.85 445.72,-219.85"/>
</g>
<!-- UsersModule -->
<g id="node5" class="node">
<title>UsersModule</title>
<polygon fill="#8dd3c7" stroke="black" points="259.92,-122 256.92,-126 235.92,-126 232.92,-122 168.08,-122 168.08,-86 259.92,-86 259.92,-122"/>
<text text-anchor="middle" x="214" y="-99.8" font-family="Times,serif" font-size="14.00">UsersModule</text>
</g>
<!-- UsersModule&#45;&gt;PostsModule -->
<g id="edge11" class="edge">
<title>UsersModule&#45;&gt;PostsModule</title>
<path fill="none" stroke="black" d="M205.92,-122.22C205.92,-122.22 205.92,-143.73 205.92,-143.73"/>
<polygon fill="black" stroke="black" points="202.42,-143.73 205.92,-153.73 209.42,-143.73 202.42,-143.73"/>
</g>
<!-- UsersModule&#45;&gt;AppModule -->
<g id="edge5" class="edge">
<title>UsersModule&#45;&gt;AppModule</title>
<path fill="none" stroke="black" d="M251.63,-122.04C251.63,-159.45 251.63,-242 251.63,-242 251.63,-242 367.2,-242 367.2,-242"/>
<polygon fill="black" stroke="black" points="367.2,-245.5 377.2,-242 367.2,-238.5 367.2,-245.5"/>
</g>
<!-- UsersService  -->
<g id="node13" class="node">
<title>UsersService </title>
<polygon fill="#fb8072" stroke="black" points="1061.85,-190 968.15,-190 968.15,-154 1061.85,-154 1061.85,-190"/>
<text text-anchor="middle" x="1015" y="-167.8" font-family="Times,serif" font-size="14.00">UsersService </text>
</g>
<!-- UsersModule&#45;&gt;UsersService  -->
<g id="edge13" class="edge">
<title>UsersModule&#45;&gt;UsersService </title>
<path fill="none" stroke="black" stroke-dasharray="5,2" d="M259.94,-98C430.14,-98 1015,-98 1015,-98 1015,-98 1015,-143.71 1015,-143.71"/>
<polygon fill="black" stroke="black" points="1011.5,-143.71 1015,-153.71 1018.5,-143.71 1011.5,-143.71"/>
</g>
<!-- AppService -->
<g id="node7" class="node">
<title>AppService</title>
<ellipse fill="#fdb462" stroke="black" cx="357" cy="-172" rx="56.74" ry="18"/>
<text text-anchor="middle" x="357" y="-167.8" font-family="Times,serif" font-size="14.00">AppService</text>
</g>
<!-- AppService&#45;&gt;AppModule -->
<g id="edge6" class="edge">
<title>AppService&#45;&gt;AppModule</title>
<path fill="none" stroke="black" d="M395.4,-185.24C395.4,-185.24 395.4,-219.79 395.4,-219.79"/>
<polygon fill="black" stroke="black" points="391.9,-219.79 395.4,-229.79 398.9,-219.79 391.9,-219.79"/>
</g>
<!-- AuthService -->
<g id="node9" class="node">
<title>AuthService</title>
<ellipse fill="#fdb462" stroke="black" cx="993" cy="-248" rx="59.11" ry="18"/>
<text text-anchor="middle" x="993" y="-243.8" font-family="Times,serif" font-size="14.00">AuthService</text>
</g>
<!-- AuthService&#45;&gt;AuthModule -->
<g id="edge8" class="edge">
<title>AuthService&#45;&gt;AuthModule</title>
<path fill="none" stroke="black" d="M938.84,-240.64C938.84,-232.35 938.84,-220 938.84,-220 938.84,-220 564.11,-220 564.11,-220 564.11,-220 564.11,-200.15 564.11,-200.15"/>
<polygon fill="black" stroke="black" points="567.61,-200.15 564.11,-190.15 560.61,-200.15 567.61,-200.15"/>
</g>
<!-- MetaOptionsService -->
<g id="node11" class="node">
<title>MetaOptionsService</title>
<ellipse fill="#fdb462" stroke="black" cx="1182" cy="-248" rx="90.33" ry="18"/>
<text text-anchor="middle" x="1182" y="-243.8" font-family="Times,serif" font-size="14.00">MetaOptionsService</text>
</g>
<!-- MetaOptionsService&#45;&gt;MetaOptionsModule -->
<g id="edge10" class="edge">
<title>MetaOptionsService&#45;&gt;MetaOptionsModule</title>
<path fill="none" stroke="black" d="M1182,-229.89C1182,-220.1 1182,-210 1182,-210 1182,-210 714,-210 714,-210 714,-210 714,-200.11 714,-200.11"/>
<polygon fill="black" stroke="black" points="717.5,-200.11 714,-190.11 710.5,-200.11 717.5,-200.11"/>
</g>
<!-- PostsService -->
<g id="node12" class="node">
<title>PostsService</title>
<ellipse fill="#fdb462" stroke="black" cx="84" cy="-104" rx="60.27" ry="18"/>
<text text-anchor="middle" x="84" y="-99.8" font-family="Times,serif" font-size="14.00">PostsService</text>
</g>
<!-- PostsService&#45;&gt;PostsModule -->
<g id="edge12" class="edge">
<title>PostsService&#45;&gt;PostsModule</title>
<path fill="none" stroke="black" d="M144.58,-104C154.37,-104 161.37,-104 161.37,-104 161.37,-104 161.37,-143.78 161.37,-143.78"/>
<polygon fill="black" stroke="black" points="157.87,-143.78 161.37,-153.78 164.87,-143.78 157.87,-143.78"/>
</g>
<!-- UsersService -->
<g id="node14" class="node">
<title>UsersService</title>
<ellipse fill="#fdb462" stroke="black" cx="882" cy="-172" rx="61.95" ry="18"/>
<text text-anchor="middle" x="882" y="-167.8" font-family="Times,serif" font-size="14.00">UsersService</text>
</g>
<!-- UsersService&#45;&gt;UsersModule -->
<g id="edge14" class="edge">
<title>UsersService&#45;&gt;UsersModule</title>
<path fill="none" stroke="black" d="M882,-153.73C882,-135.44 882,-110 882,-110 882,-110 269.91,-110 269.91,-110"/>
<polygon fill="black" stroke="black" points="269.91,-106.5 259.91,-110 269.91,-113.5 269.91,-106.5"/>
</g>
</g>
</svg>
